<?xml version="1.0" standalone="no"?>
<!DOCTYPE svg PUBLIC "-//W3C//DTD SVG 20010904//EN"
 "http://www.w3.org/TR/2001/REC-SVG-20010904/DTD/svg10.dtd">
<svg version="1.0" xmlns="http://www.w3.org/2000/svg"
 width="432.000000pt" height="432.000000pt" viewBox="0 0 432.000000 432.000000"
 preserveAspectRatio="xMidYMid meet">
<metadata>
Created by potrace 1.14, written by Peter Selinger 2001-2017
</metadata>
<g transform="translate(0.000000,432.000000) scale(0.100000,-0.100000)"
fill="#000000" stroke="none">
<path d="M1956 3792 c-3 -6 -20 -9 -37 -8 -16 1 -32 -1 -35 -6 -3 -4 -23 -8
-45 -8 -21 0 -39 -3 -39 -8 0 -4 -14 -8 -32 -9 -18 0 -34 -6 -36 -12 -3 -9 -8
-8 -20 1 -13 11 -14 11 -8 -1 6 -9 5 -12 -5 -9 -8 3 -29 -4 -47 -14 -34 -19
-58 -25 -32 -8 10 7 11 10 2 10 -7 0 -15 -6 -17 -12 -3 -7 -17 -14 -32 -15
-15 0 -29 -6 -31 -12 -2 -6 -8 -9 -13 -5 -5 3 -9 0 -9 -6 0 -6 -4 -9 -9 -6 -8
5 -110 -42 -135 -63 -7 -6 -16 -8 -19 -4 -4 3 -9 -2 -13 -11 -3 -9 -13 -16
-21 -16 -8 0 -21 -6 -28 -12 -34 -31 -45 -38 -45 -31 0 4 -7 -2 -16 -13 -8
-10 -13 -12 -9 -4 4 8 -1 6 -10 -5 -9 -11 -21 -19 -26 -17 -5 1 -12 -5 -15
-13 -4 -8 -13 -15 -21 -15 -8 0 -11 -5 -7 -12 5 -8 2 -9 -10 -5 -14 6 -17 3
-12 -8 3 -9 2 -13 -4 -10 -6 3 -10 1 -10 -6 0 -7 -3 -10 -6 -7 -3 3 -19 -7
-35 -23 -16 -16 -35 -29 -41 -29 -6 0 -9 -3 -5 -6 8 -8 -25 -44 -42 -44 -8 0
-12 -3 -9 -6 6 -5 -16 -31 -92 -110 -11 -12 -20 -26 -20 -31 0 -6 -7 -14 -16
-17 -8 -3 -13 -10 -9 -15 3 -6 -4 -15 -15 -21 -11 -6 -20 -19 -20 -29 0 -11
-7 -21 -15 -25 -8 -3 -15 -11 -15 -18 0 -6 -10 -23 -22 -36 -13 -14 -16 -22
-8 -18 9 5 8 2 -2 -7 -10 -8 -15 -17 -11 -20 3 -4 1 -7 -5 -7 -6 0 -13 -14
-17 -30 -4 -17 -11 -28 -16 -25 -5 4 -6 -1 -3 -9 3 -9 2 -16 -2 -16 -5 0 -14
-12 -20 -27 -12 -29 -26 -64 -29 -73 -9 -26 -20 -46 -29 -52 -7 -5 -7 -8 2 -8
6 0 12 -5 12 -11 0 -5 -4 -7 -10 -4 -6 4 -10 -7 -10 -25 0 -17 -4 -29 -10 -25
-5 3 -8 -7 -5 -25 2 -17 0 -28 -6 -25 -5 4 -9 -7 -9 -24 0 -16 -4 -32 -9 -35
-5 -4 -8 -17 -6 -31 1 -14 -2 -25 -7 -25 -5 0 -6 -5 -3 -10 4 -6 1 -17 -5 -25
-9 -11 -9 -15 -1 -15 8 0 6 -10 -5 -31 -8 -17 -11 -28 -5 -25 13 9 14 -4 1
-24 -6 -9 -5 -20 3 -29 9 -12 9 -13 0 -8 -9 6 -12 -31 -12 -158 1 -121 4 -163
13 -158 6 4 5 -1 -3 -10 -7 -9 -9 -17 -4 -17 4 0 8 -18 7 -40 0 -22 2 -40 6
-40 7 0 8 -3 11 -57 1 -18 7 -33 13 -33 6 0 4 -5 -4 -10 -10 -6 -11 -10 -2
-10 7 0 12 -13 12 -31 0 -21 4 -28 13 -23 9 6 9 4 -1 -8 -9 -11 -9 -17 -2 -20
6 -2 12 -13 13 -26 0 -12 4 -22 8 -22 4 0 6 -11 5 -25 -2 -13 1 -22 5 -19 9 5
11 0 12 -33 1 -10 7 -22 14 -26 7 -4 13 -19 13 -32 0 -14 5 -25 10 -25 6 0 10
-9 10 -20 0 -11 5 -20 11 -20 6 0 8 -7 5 -16 -3 -8 -2 -12 4 -9 6 3 10 -3 10
-13 0 -11 7 -25 15 -32 8 -7 15 -21 15 -32 0 -10 5 -16 10 -13 5 3 10 -3 10
-14 0 -12 5 -21 10 -21 6 0 10 -7 10 -15 0 -8 4 -15 9 -15 5 0 14 -13 21 -30
7 -16 16 -30 21 -30 5 0 9 -10 9 -22 0 -19 2 -20 10 -8 9 13 10 13 10 0 0 -8
14 -30 31 -47 16 -18 28 -33 25 -33 -3 0 5 -11 18 -25 13 -14 29 -25 35 -25 7
0 10 -4 7 -8 -3 -5 4 -14 14 -22 10 -8 17 -17 14 -22 -3 -4 2 -8 10 -8 8 0 20
-9 26 -20 6 -11 18 -20 26 -20 8 0 13 -3 11 -7 -2 -5 4 -16 15 -25 10 -10 18
-16 18 -13 0 3 11 -5 25 -17 14 -13 35 -31 45 -40 11 -10 27 -18 36 -18 8 0
13 -4 9 -9 -3 -5 4 -12 15 -16 11 -3 20 -11 20 -17 0 -5 6 -8 13 -5 7 3 19 -4
25 -14 7 -10 21 -19 32 -19 11 0 20 -4 20 -10 0 -5 6 -10 14 -10 8 0 21 -6 28
-13 15 -15 49 -31 61 -29 4 1 7 -2 7 -8 0 -5 9 -10 20 -10 11 0 20 -4 20 -10
0 -5 9 -10 19 -10 11 0 23 -5 26 -11 4 -6 13 -8 20 -5 8 3 15 0 17 -5 2 -5 13
-11 26 -12 12 0 22 -5 22 -9 0 -4 7 -5 15 -2 8 4 15 1 15 -5 0 -6 11 -11 24
-11 14 0 27 -4 31 -9 3 -5 19 -9 36 -9 17 1 34 -5 39 -12 6 -10 9 -9 13 1 4
10 6 10 6 2 1 -8 15 -13 37 -13 25 0 33 -3 28 -12 -6 -10 -4 -10 8 0 9 7 19 9
22 4 3 -5 21 -8 41 -7 19 0 35 -3 35 -8 0 -5 8 -3 17 4 9 8 14 9 10 2 -5 -8
35 -11 158 -11 117 0 165 3 165 12 0 7 3 7 8 1 10 -14 32 -17 32 -5 0 7 7 7
21 -1 13 -7 19 -7 15 -1 -3 6 -2 13 4 17 5 3 10 0 10 -7 0 -9 3 -9 10 2 8 12
10 12 10 1 0 -10 3 -11 14 -2 7 6 32 12 55 14 22 1 41 5 41 10 0 4 11 7 25 7
14 0 25 5 25 11 0 8 6 7 17 -2 14 -12 16 -12 9 0 -6 9 -5 12 5 9 8 -3 29 4 47
14 35 19 56 24 32 7 -13 -9 -13 -10 0 -5 8 3 23 9 33 12 9 4 17 10 17 15 0 5
5 9 11 9 5 0 7 -6 4 -12 -4 -7 1 -4 9 6 9 11 16 16 16 12 0 -5 6 -3 13 3 8 6
17 8 20 4 4 -3 7 -1 7 5 0 7 7 12 16 12 9 0 12 5 8 13 -5 9 -4 9 6 0 14 -13
43 -6 34 8 -3 5 4 9 15 9 11 0 23 5 26 10 4 6 11 7 17 4 7 -4 8 -2 4 4 -4 7
-1 12 8 12 9 0 16 5 16 11 0 5 4 8 9 5 5 -3 14 1 21 9 7 8 16 13 20 10 4 -3
11 2 14 11 4 9 13 14 22 10 8 -3 13 -2 11 2 -3 4 1 13 9 20 8 7 14 10 14 6 0
-4 9 3 19 15 11 13 25 20 30 16 6 -3 11 2 11 11 0 10 3 15 6 12 3 -3 16 4 29
16 13 11 39 34 58 51 20 16 33 34 30 39 -4 5 1 7 10 3 11 -4 18 1 22 14 4 10
11 17 16 14 5 -4 9 3 9 15 0 12 5 18 10 15 6 -3 10 -1 10 5 0 6 5 8 10 5 6 -3
10 -1 10 4 0 6 0 13 0 16 0 10 35 42 42 38 4 -2 10 7 13 19 4 13 21 35 37 50
16 16 26 28 21 28 -4 0 -1 6 7 13 8 7 16 19 18 27 2 8 10 19 18 23 8 4 14 13
14 19 0 7 10 23 23 36 12 14 15 22 7 18 -9 -5 -8 -2 2 7 10 8 15 17 11 20 -3
4 -1 7 5 7 6 0 13 13 17 29 3 16 13 35 21 41 7 7 11 16 8 21 -3 5 0 9 6 9 6 0
8 5 5 10 -3 6 -1 10 4 10 6 0 11 9 11 19 0 11 5 23 10 26 6 4 8 10 5 15 -3 5
-1 11 5 15 5 3 10 17 10 31 0 18 4 23 13 18 7 -5 7 -2 -2 10 -12 15 -12 17 0
14 9 -2 13 4 11 16 -2 10 1 15 6 12 5 -3 8 6 6 19 -1 14 2 25 6 25 5 0 7 9 5
20 -2 11 0 22 5 25 5 3 6 13 3 22 -5 12 -3 14 8 8 11 -6 11 -5 2 5 -12 13 -1
46 22 62 6 5 5 8 -3 8 -17 0 -11 31 8 48 8 8 9 11 3 7 -8 -4 -13 0 -13 10 0
10 5 13 12 9 7 -5 8 -3 2 7 -12 19 -14 40 -3 34 12 -8 10 345 -3 369 -8 14 -7
17 4 10 11 -6 11 -5 -1 9 -11 14 -11 17 0 17 12 0 12 2 0 9 -8 5 -11 16 -8 25
4 9 3 16 -1 16 -4 0 -8 17 -10 37 -1 20 -7 42 -13 49 -7 8 -6 14 3 17 10 4 10
6 1 6 -8 1 -13 15 -13 36 0 19 -5 35 -11 35 -6 0 -9 8 -7 18 2 9 -3 23 -12 30
-13 11 -13 12 0 6 12 -7 13 -5 3 8 -7 8 -10 18 -6 21 3 4 2 7 -4 7 -6 0 -13
17 -17 39 -3 21 -12 44 -20 50 -8 7 -12 19 -9 27 3 8 0 14 -7 14 -6 0 -8 4 -5
10 3 6 -2 10 -12 10 -14 0 -15 2 -4 9 11 7 9 13 -7 29 -11 11 -18 23 -15 26 4
3 0 14 -8 23 -26 33 -49 80 -41 87 4 4 0 6 -8 4 -8 -2 -14 3 -13 10 2 6 -1 12
-6 12 -10 0 -27 39 -23 52 1 4 -6 4 -14 1 -11 -4 -15 -2 -12 7 2 8 -3 21 -11
30 -31 33 -69 80 -65 80 2 0 -15 20 -38 44 -24 25 -47 49 -53 55 -5 6 -27 25
-47 43 -21 17 -35 35 -32 40 3 5 2 8 -3 7 -20 -3 -34 2 -28 11 3 6 -1 10 -9
10 -9 0 -21 9 -28 20 -7 11 -21 20 -31 20 -10 0 -15 5 -12 10 3 6 -1 10 -9 10
-9 0 -16 5 -16 12 0 6 -3 8 -6 5 -4 -4 -15 3 -26 15 -10 12 -21 18 -25 15 -3
-4 -12 2 -20 13 -8 11 -23 20 -34 20 -11 0 -17 5 -14 10 3 6 1 10 -4 10 -22 0
-26 2 -43 17 -10 9 -18 13 -18 9 0 -4 -12 2 -27 14 -20 16 -28 18 -35 8 -5 -9
-8 -8 -8 5 0 10 -4 15 -10 12 -5 -3 -10 -1 -10 5 0 7 -7 10 -15 6 -8 -3 -15
-1 -15 5 0 6 -4 7 -10 4 -5 -3 -10 -1 -10 4 0 6 -9 11 -19 11 -11 0 -22 4 -26
9 -3 6 -14 8 -24 6 -11 -2 -22 3 -25 11 -3 7 -12 11 -21 8 -8 -3 -15 -1 -15 4
0 6 -9 9 -20 7 -11 -2 -20 2 -20 8 0 7 -4 6 -10 -3 -6 -10 -10 -11 -10 -2 0 6
-11 12 -25 12 -14 0 -25 6 -25 13 0 8 -4 7 -10 -3 -6 -10 -10 -11 -10 -2 0 7
-14 12 -35 12 -21 0 -35 5 -35 13 0 9 -3 8 -9 -2 -5 -7 -11 -9 -14 -3 -4 5
-26 9 -51 8 -24 -1 -42 2 -40 5 6 10 -317 9 -336 -1 -11 -6 -21 -5 -27 1 -7 7
-13 7 -17 1z"/>
</g>
</svg>
